<svg id="Layer_1" data-name="Layer 1" xmlns="http://www.w3.org/2000/svg" width="188.6mm" height="27.3mm" viewBox="0 0 534.7 77.4"><title>Artboard 1</title><path d="M55.1,76.7,2.1,3.9V76.7H0V1.7H3.2L56.1,74.6V1.7h2.1v75Z" style="fill:#fff"/><path d="M85.8,76.7V1.7h2.1v75Z" style="fill:#fff"/><path d="M171.3,11.4l-1.4,1.4a36.7,36.7,0,0,0-24.4-9C125.5,3.8,109,19.6,109,39.2s16.4,35.5,36.5,35.5a36.7,36.7,0,0,0,24.4-9.1l1.5,1.4a39.4,39.4,0,0,1-25.9,9.8c-21.1,0-38.5-17-38.5-37.6S124.4,1.7,145.5,1.7A39,39,0,0,1,171.3,11.4Z" style="fill:#fff"/><path d="M257.6,39.2c0,20.6-17.4,37.6-38.5,37.6s-38.5-17-38.5-37.6S197.9,1.7,219,1.7,257.6,18.6,257.6,39.2Zm-74.9,0c0,19.4,16.4,35.4,36.4,35.4s36.4-16,36.4-35.4S239,3.9,219,3.9,182.7,19.8,182.7,39.2Z" style="fill:#fff"/><path d="M273.7,1.6H284V67.4h32.8v9.3H273.7Z" style="fill:#fff"/><path d="M458.8,6.6q6.6,5,6.6,13.8a16.6,16.6,0,0,1-3.6,10.9,17.7,17.7,0,0,1-10,6q7.8,1.2,12.3,6.3a18.6,18.6,0,0,1,4.5,12.7q0,9.7-7.2,15.1t-20,5.4H408.6V1.6h32.1Q452.1,1.6,458.8,6.6Zm-7.8,23.9a10,10,0,0,0,3.8-8.4,9.8,9.8,0,0,0-3.8-8.3q-3.8-2.9-10.8-2.8H418.9V33.5h21.3Q447.1,33.5,450.9,30.5Zm2.3,33.6a10.5,10.5,0,0,0,4.7-9.2,10.2,10.2,0,0,0-4.7-8.9q-4.7-3.2-13.1-3.2H418.9V67.3h21.3Q448.5,67.4,453.2,64.1Z" style="fill:#fff"/><path d="M518,12.3a36.8,36.8,0,0,0-10.4-1.7q-6.5,0-10.5,2.5a7.8,7.8,0,0,0-3.9,6.9,9.1,9.1,0,0,0,2.4,6.5,16.7,16.7,0,0,0,5.8,4q3.4,1.4,9.6,3.4a108.2,108.2,0,0,1,12.3,4.5,21.4,21.4,0,0,1,8,6.4q3.3,4.2,3.3,11.2a18.7,18.7,0,0,1-3.5,11.3,22.3,22.3,0,0,1-9.8,7.5A37.1,37.1,0,0,1,507,77.4a42,42,0,0,1-16.1-3.2,43.6,43.6,0,0,1-13.5-8.6l4.6-8.9a38.7,38.7,0,0,0,12.1,8.1,33.3,33.3,0,0,0,13,2.8q7.5,0,11.9-3a9.2,9.2,0,0,0,4.3-8,9.3,9.3,0,0,0-2.4-6.5,16.7,16.7,0,0,0-6-4.1,102.1,102.1,0,0,0-9.7-3.3A99.1,99.1,0,0,1,493,38.3a21.1,21.1,0,0,1-8-6.3q-3.3-4.2-3.3-11.1a17.7,17.7,0,0,1,3.3-10.6,21,21,0,0,1,9.3-7.1,36.5,36.5,0,0,1,14-2.5,45.1,45.1,0,0,1,13.3,2,44.5,44.5,0,0,1,11.5,5.3l-4.3,9.2A43.3,43.3,0,0,0,518,12.3Z" style="fill:#fff"/><path d="M374.5,1a2.9,2.9,0,0,1,0,5.8h-1.8V30.6l.2.3,25.3,34.8A5.3,5.3,0,0,1,394,74H331.5a5.3,5.3,0,0,1-4.2-8.4l25.3-34.8.2-.3V6.8H351A2.9,2.9,0,0,1,351,1h23.4M358.6,30.9,347.9,46.3l-1.1,1.6h32l-1.1-1.6L366.9,30.9V6.8h-8.3V30.9M374.5,0H351a3.9,3.9,0,0,0,0,7.8h.8V30.3L326.5,65a6.3,6.3,0,0,0,5,10H394a6.3,6.3,0,0,0,5-10L373.7,30.3V7.8h.8a3.9,3.9,0,0,0,0-7.8ZM348.7,46.9l10.9-15.6V7.8h6.3V31.2l10.9,15.6Z" style="fill:#fff"/></svg>